<svg width="136" height="132" viewBox="0 0 136 132" fill="none" xmlns="http://www.w3.org/2000/svg">
<g clip-path="url(#clip0_16_14)">
<path d="M26.3332 0.66666C25.6665 0.933326 23.2665 1.46666 21.2665 1.86666C16.3332 3.06666 6.19984 12.4 2.59984 19.3333C-0.200163 24.5333 -0.333496 26.1333 -0.333496 66C-0.333496 106.8 -0.333496 107.467 2.73317 113.2C6.73317 120.667 11.3998 124.933 19.6665 128.8C26.3332 132 26.7332 132 74.7332 132C137.267 132 135 132.933 135 106.4C135 93.3333 134.6 90.5333 132.733 88.5333C128.733 84.6667 114.733 78.9333 107.667 78.5333L101 78L100.6 91.0667L100.2 104L69.2665 103.733L38.3332 103.333L37.9332 72.1333L37.6665 40.9333L33.6665 35.6C31.3998 32.5333 29.6665 29.6 29.6665 29.0667C29.6665 28.5333 45.5332 28 64.9998 28H100.333V34V40L94.7332 40.1333C91.5332 40.2667 83.9332 40.5333 77.6665 40.8C71.3998 41.0667 64.0665 41.2 61.3998 41.2L56.3332 41.3333V66V90.6667H70.3332H84.3332L84.5998 80C84.5998 74.1333 84.7332 68.5333 84.8665 67.7333C85.1332 64.9333 80.5998 65.0667 77.7998 67.8667C74.0665 71.6 73.6665 71.4667 73.6665 66C73.6665 60.9333 73.3998 61.0667 89.1332 59.3333C104.333 57.7333 123.533 49.0667 131 40.5333C134.6 36.4 135 35.0667 135.133 26.2667C135.133 20.9333 135.267 13.0667 135.4 8.66666L135.533 0.66666L81.5332 0.399993C51.9332 0.26666 27.1332 0.399993 26.3332 0.66666Z" fill="#FF737A"/>
</g>
<defs>
<clipPath id="clip0_16_14">
<rect width="136" height="132" fill="white"/>
</clipPath>
</defs>
</svg>
