<svg width="801" height="132" viewBox="0 0 801 132" fill="none" xmlns="http://www.w3.org/2000/svg">
<g clip-path="url(#clip0_16_2)">
<path d="M26.3332 0.66666C25.6665 0.933326 23.2665 1.46666 21.2665 1.86666C16.3332 3.06666 6.19984 12.4 2.59984 19.3333C-0.200163 24.5333 -0.333496 26.1333 -0.333496 66C-0.333496 106.8 -0.333496 107.467 2.73317 113.2C6.73317 120.667 11.3998 124.933 19.6665 128.8C26.3332 132 26.7332 132 74.7332 132C137.267 132 135 132.933 135 106.4C135 93.3333 134.6 90.5333 132.733 88.5333C128.733 84.6667 114.733 78.9333 107.667 78.5333L101 78L100.6 91.0667L100.2 104L69.2665 103.733L38.3332 103.333L37.9332 72.1333L37.6665 40.9333L33.6665 35.6C31.3998 32.5333 29.6665 29.6 29.6665 29.0667C29.6665 28.5333 45.5332 28 64.9998 28H100.333V34V40L94.7332 40.1333C91.5332 40.2667 83.9332 40.5333 77.6665 40.8C71.3998 41.0667 64.0665 41.2 61.3998 41.2L56.3332 41.3333V66V90.6667H70.3332H84.3332L84.5998 80C84.5998 74.1333 84.7332 68.5333 84.8665 67.7333C85.1332 64.9333 80.5998 65.0667 77.7998 67.8667C74.0665 71.6 73.6665 71.4667 73.6665 66C73.6665 60.9333 73.3998 61.0667 89.1332 59.3333C104.333 57.7333 123.533 49.0667 131 40.5333C134.6 36.4 135 35.0667 135.133 26.2667C135.133 20.9333 135.267 13.0667 135.4 8.66666L135.533 0.66666L81.5332 0.399993C51.9332 0.26666 27.1332 0.399993 26.3332 0.66666Z" fill="#FF737A"/>
<path d="M638.866 7.6C638.866 8.26666 638.866 15.4667 639 23.7333C639.133 32 638.733 39.2 638.333 40C637.933 40.6667 634.866 39.3333 631.533 36.9333C626.066 33.0667 624.466 32.6667 615.933 32.6667C609.666 32.8 604.866 33.4667 602.2 34.9333C581.266 46.2667 578.333 78.2667 596.866 94.1333C608.333 104 626.866 103.6 635.4 93.3333C637.933 90.2667 640.6 90.9333 640.2 94.4C639.8 99.3333 640.333 100 645.533 100H650.6L651.533 89.7333C651.933 84.1333 652.333 63.2 652.333 43.0667V6.66666H645.666C642.066 6.66666 639 7.06666 638.866 7.6ZM626.2 45.8667C628.6 46.9333 632.333 50 634.466 52.8C637.8 57.2 638.333 58.9333 638.333 66.8C638.333 73.8667 637.666 76.6667 635.533 79.4667C630.6 86.1333 626.333 88.5333 619.133 88.2667C607.266 88 599.8 81.8667 598.2 71.0667C595.533 52.9333 610.6 39.3333 626.2 45.8667Z" fill="#FF737A"/>
<path d="M428.333 23.8667V33.2L422.733 33.6C417 34 417 34 417 39.3333C417 44.4 417.133 44.6667 421.667 45.0667C424.2 45.3333 426.733 45.8667 427.267 46.4C427.8 46.9333 428.333 55.3333 428.467 65.2C428.6 85.8667 430.067 91.0667 436.733 96.4C440.467 99.4667 443.133 100.4 449.933 100.933C460.733 101.733 463.8 99.8667 462.467 93.0667C461.667 88.5333 461.4 88.4 454.067 87.6C449.933 87.2 445.8 86 444.733 85.0667C443.4 83.7333 442.867 78.4 442.733 65.6C442.6 56 442.867 47.6 443.4 47.0667C443.933 46.6667 447 46.4 450.333 46.4C459.133 46.8 461.667 45.0667 461.667 38.6667V33.4667L452.733 33.0667L443.667 32.6667L443 24L442.333 15.3333L435.4 14.9333L428.333 14.5333V23.8667Z" fill="#FF737A"/>
<path d="M282.333 31.8667C264.067 36.6667 253.133 49.7334 253.133 66.6667C253.267 85.4667 266.6 99.6 285.4 101.067C302.2 102.133 313.8 96 320.867 82.2667C328.6 67.2 324.6 49.2 311.267 39.0667C303.4 33.0667 290.2 29.8667 282.333 31.8667ZM300.067 48C306.6 52 309.667 58 309.667 66.8C309.667 79.6 301.267 88 288.6 88C270.6 88 261.133 67.2 272.6 52.6667C278.333 45.3334 291.8 42.9334 300.067 48Z" fill="#FF737A"/>
<path d="M501.4 32.1334C485 34.8 472.333 50 472.333 67.0667C472.333 79.7334 478.466 90.5334 489.4 96.9334C497.666 101.867 513.266 102.8 521.8 99.0667C536.333 92.5334 543 82.1334 543 65.7334C543 56.5334 542.466 54.5334 539 49.0667C531.133 36.5334 515.933 29.7334 501.4 32.1334ZM519 48.4C531.133 56.5334 532.066 73.6 521 84C517.933 86.9334 516.2 87.3334 507.666 87.3334C499.133 87.3334 497.4 86.9334 494.333 84C489 79.0667 487 74.2667 487 66.4C487 53.6 495.133 45.3334 507.8 45.3334C512.6 45.3334 515.933 46.1334 519 48.4Z" fill="#FF737A"/>
<path d="M203.533 34.1333C196.733 36.5333 189.4 43.4666 185.4 51.0666C181.133 58.9333 181.133 74.4 185.267 82.1333C189.133 89.3333 198.733 97.7333 205.4 99.7333C218.067 103.6 233.133 100.533 240.333 92.8L243.533 89.2L239.4 85.0666L235.267 80.9333L230.867 84.1333C224.6 88.5333 212.067 89.2 205.933 85.4666C198.867 80.9333 196.067 75.3333 196.6 65.9999C197.4 52.3999 204.867 45.3333 218.067 45.3333C222.2 45.3333 225.533 46.3999 229 48.7999C233.4 51.7333 234.6 51.9999 237.133 50.6666C238.733 49.7333 240.867 47.5999 241.8 45.7333C243.4 42.7999 243.267 42.1333 240.333 39.8666C233.4 34.3999 229 32.9333 219 32.5333C212.333 32.1333 207.133 32.7999 203.533 34.1333Z" fill="#FF737A"/>
<path d="M688.467 33.6C681.933 35.4667 670.6 47.3333 667.933 55.2C662.467 71.2 668.6 88.6667 682.467 96.8C691.267 102 705.267 102.8 714.333 98.8C721.533 95.6 725.667 92.4 725.667 90.1333C725.667 89.3333 724.067 87.6 722.333 86.2667C719.267 84 718.867 84.1333 713.8 86.8C707.8 89.8667 698.067 90.4 691.667 88C685.933 85.8667 679 78.6667 679 75.0667V72H704.867C726.333 72 730.867 71.7333 731.4 70C732.6 66.9333 730.067 54.1333 727.267 48.4C720.467 35.2 704.333 28.9333 688.467 33.6ZM708.2 44.6667C713.533 47.3333 719 54.2667 719 58.1333V61.3333H699.8C687.667 61.3333 680.2 60.8 679.667 59.8667C677.933 57.0667 682.2 50.2667 688.2 46.5333C695 42.1333 702.2 41.4667 708.2 44.6667Z" fill="#FF737A"/>
<path d="M341.266 34.2666C341 34.8 340.6 44.2666 340.466 55.3333C340.2 70.4 340.733 77.0666 342.333 82.4C346.466 95.8667 358.866 103.6 373.266 101.333C380.866 100.133 384.333 98.5333 387 95.4666C389.533 92.2666 392.333 92.9333 392.333 96.6666C392.333 99.7333 392.866 100 398.333 100H404.333V66.6666V33.3333H397.666H391V54.2666C391 72.8 390.733 75.8666 388.333 79.6C382.2 89.7333 366.866 91.7333 358.866 83.2C355.8 79.8666 355.666 78.9333 355 56.9333L354.333 34L348.066 33.6C344.733 33.3333 341.666 33.7333 341.266 34.2666Z" fill="#FF737A"/>
<path d="M737.667 35.0667C737.667 36 740.867 44.6667 744.867 54.1333C752.333 72.4 760.867 93.7333 762.2 97.6C762.733 99.4667 764.333 100 768.733 100H774.6L784.333 76.2667C789.8 63.3333 795.4 49.6 797.133 46C802.733 33.2 802.733 33.3333 795.133 33.3333H788.6L780.467 53.8667C775.933 65.0667 772.333 74.9333 772.333 75.7333C772.333 77.4667 768.467 80.5333 767.533 79.6C766.867 78.9333 764.867 73.7333 753.8 44L750.067 34L743.933 33.6C739.267 33.3333 737.667 33.7333 737.667 35.0667Z" fill="#FF737A"/>
<path d="M560.066 83.3334C552.066 87.7334 555 100.133 564.066 101.067C567.133 101.333 569.133 100.533 571.666 98.1334C575.933 93.8667 575.933 89.3334 571.666 84.8001C568.066 80.9334 565.266 80.5334 560.066 83.3334Z" fill="#FF737A"/>
</g>
<defs>
<clipPath id="clip0_16_2">
<rect width="801" height="132" fill="white"/>
</clipPath>
</defs>
</svg>
